<svg width="21" height="15" viewBox="0 0 21 15" fill="none" xmlns="http://www.w3.org/2000/svg">
<path d="M1 14H0V15H1V14ZM2 14V15H2.27698L2.5145 14.8575L2 14ZM5.33333 12V11H5.05635L4.81884 11.1425L5.33333 12ZM2 3C2 2.44772 2.44772 2 3 2V0C1.34315 0 0 1.34315 0 3H2ZM2 9V3H0V9H2ZM0 9V10H2V9H0ZM0 10V14H2V10H0ZM1 15H2V13H1V15ZM2.5145 14.8575L5.84783 12.8575L4.81884 11.1425L1.4855 13.1425L2.5145 14.8575ZM18 11H5.33333V13H18V11ZM19 10C19 10.5523 18.5523 11 18 11V13C19.6569 13 21 11.6569 21 10H19ZM19 3V10H21V3H19ZM18 2C18.5523 2 19 2.44772 19 3H21C21 1.34315 19.6569 0 18 0V2ZM3 2H18V0H3V2Z" fill="#333333"/>
<circle cx="6" cy="7" r="1" fill="#333333"/>
<circle cx="11" cy="7" r="1" fill="#333333"/>
<circle cx="16" cy="7" r="1" fill="#333333"/>
</svg>
