<svg width="27" height="21" viewBox="0 0 27 21" fill="none" xmlns="http://www.w3.org/2000/svg">
<path d="M11.3531 6.26137C10.8354 5.96253 10.1719 6.32376 10.1719 6.90938V13.9529C10.1719 14.5416 10.8364 14.8978 11.3531 14.6019L17.4665 11.0852C17.9748 10.7924 17.9738 10.082 17.4676 9.78818L11.3531 6.26137Z" fill="#D7D7D7"/>
<path d="M25.6818 15.5835L25.6818 15.5836C25.335 17.5594 23.7563 19.0785 21.7554 19.3653C19.3268 19.7148 16.4185 19.8882 13.5113 19.8882C10.5988 19.8882 7.68314 19.7138 5.24534 19.3643C3.24246 19.0775 1.66254 17.5585 1.31787 15.5826C0.694049 12.021 0.694045 8.84249 1.31785 5.27995L25.6818 15.5835ZM25.6818 15.5835C26.3056 12.021 26.3056 8.84143 25.6818 5.27886M25.6818 15.5835V5.27886M25.6818 5.27886C25.3371 3.30493 23.7572 1.78492 21.7543 1.49807C16.8934 0.800641 10.1083 0.800643 5.24531 1.49807C3.24245 1.7849 1.66255 3.30493 1.31787 5.27986L25.6818 5.27886ZM21.4826 17.5749L21.4826 17.5749C16.7905 18.2482 10.2217 18.2482 5.51708 17.5739C4.31265 17.401 3.36261 16.4794 3.15294 15.2793L3.15293 15.2792C2.55802 11.8807 2.55802 8.98272 3.15293 5.58217C3.36363 4.38206 4.31262 3.46141 5.51814 3.28748C7.86567 2.9516 10.6822 2.7828 13.4988 2.7828C16.3174 2.7828 19.134 2.9516 21.4815 3.28749C22.6859 3.46041 23.636 4.38202 23.8456 5.58214L23.8457 5.58217C24.4406 8.9827 24.4406 11.8806 23.8457 15.2802C23.635 16.4806 22.6858 17.403 21.4826 17.5749Z" fill="#D7D7D7" stroke="#D7D7D7" stroke-width="0.3"/>
</svg>
