<svg width="25" height="25" viewBox="0 0 25 25" fill="none" xmlns="http://www.w3.org/2000/svg">
<path d="M12.4999 6.03931C9.0484 6.03931 6.25 8.74291 6.25 12.0775C6.25 15.4121 9.0484 18.1157 12.4999 18.1157C15.9514 18.1157 18.7498 15.4121 18.7498 12.0775C18.7498 8.74291 15.9514 6.03931 12.4999 6.03931ZM12.4999 15.8514C10.3468 15.8514 8.59372 14.1577 8.59372 12.0775C8.59372 9.99583 10.3468 8.30363 12.4999 8.30363C14.653 8.30363 16.4061 9.99583 16.4061 12.0775C16.4061 14.1577 14.653 15.8514 12.4999 15.8514Z" fill="#D7D7D7"/>
<path d="M19.2156 6.3917C19.6756 6.3917 20.0485 6.031 20.0485 5.58605C20.0485 5.1411 19.6756 4.7804 19.2156 4.7804C18.7557 4.7804 18.3828 5.1411 18.3828 5.58605C18.3828 6.031 18.7557 6.3917 19.2156 6.3917Z" fill="#D7D7D7"/>
<path d="M17.1872 0H7.81239C3.49839 0 0 3.37977 0 7.54751V16.6045C0 20.7722 3.49839 24.152 7.81239 24.152H17.1872C21.5012 24.152 24.9996 20.7722 24.9996 16.6045V7.54751C24.9996 3.37977 21.5012 0 17.1872 0ZM22.6559 16.6045C22.6559 19.5179 20.2028 21.8878 17.1872 21.8878H7.81239C4.7968 21.8878 2.34372 19.5179 2.34372 16.6045V7.54751C2.34372 4.63417 4.7968 2.26425 7.81239 2.26425H17.1872C20.2028 2.26425 22.6559 4.63417 22.6559 7.54751V16.6045Z" fill="#D7D7D7"/>
</svg>
