<svg width="19" height="23" viewBox="0 0 19 23" fill="none" xmlns="http://www.w3.org/2000/svg">
<path fill-rule="evenodd" clip-rule="evenodd" d="M12.0428 13.8299C9.12585 15.7602 5.19638 14.9603 3.2661 12.0434C1.33582 9.1264 2.13568 5.19694 5.05264 3.26666C7.9696 1.33639 11.8991 2.13625 13.8293 5.05321C15.7596 7.97016 14.9598 11.8996 12.0428 13.8299ZM12.4298 15.9228C8.68714 17.8988 3.98306 16.7509 1.59822 13.1471C-0.941625 9.30896 0.110825 4.13862 3.94893 1.59878C7.78704 -0.941055 12.9574 0.111397 15.4972 3.9495C17.8184 7.45709 17.1392 12.0773 14.0756 14.7856L18.1678 20.9696C18.4726 21.4302 18.3463 22.0506 17.8857 22.3554C17.4251 22.6602 16.8047 22.5339 16.4999 22.0733L12.4298 15.9228Z" fill="#222222"/>
</svg>
