<svg width="25" height="15" viewBox="0 0 25 15" fill="none" xmlns="http://www.w3.org/2000/svg">
<path d="M23.9636 11.7098C23.2192 10.817 22.3433 10.0551 21.5145 9.24598C20.7668 8.51668 20.7197 8.09361 21.3207 7.25188C21.9767 6.3332 22.6822 5.44976 23.3441 4.53523C23.962 3.68054 24.5936 2.82819 24.9188 1.80484C25.125 1.15379 24.9426 0.866216 24.275 0.752223C24.1599 0.732274 24.041 0.731238 23.9239 0.731238L19.9629 0.726575C19.4751 0.719321 19.2054 0.932021 19.0329 1.36442C18.8 1.94889 18.5598 2.53284 18.2823 3.09685C17.6528 4.37564 16.9496 5.61168 15.9639 6.65834C15.7465 6.88918 15.5061 7.1809 15.1429 7.06069C14.6884 6.89488 14.5545 6.14615 14.562 5.89304L14.5581 1.32115C14.47 0.668024 14.3252 0.376824 13.6768 0.249878L9.56215 0.250655C9.01291 0.250655 8.73751 0.462837 8.44424 0.806369C8.27507 1.00482 8.22403 1.13358 8.5717 1.19939C9.25463 1.32892 9.63935 1.7709 9.74143 2.45564C9.90516 3.54971 9.89376 4.64818 9.79946 5.74666C9.77174 6.06739 9.71655 6.38735 9.58935 6.68684C9.39038 7.15758 9.06913 7.25344 8.6471 6.96379C8.26496 6.70161 7.99656 6.33165 7.73386 5.96014C6.74705 4.5658 5.95972 3.06213 5.31773 1.48204C5.13224 1.02555 4.81228 0.748855 4.32859 0.741342C3.14021 0.722429 1.95158 0.71932 0.763208 0.742378C0.0481628 0.75585 -0.165055 1.10301 0.126144 1.75121C1.42048 4.63031 2.86119 7.42935 4.74181 9.97916C5.70738 11.2877 6.81596 12.443 8.24812 13.2616C9.87122 14.1896 11.6184 14.4689 13.4586 14.3829C14.3203 14.3425 14.5791 14.1184 14.619 13.2596C14.646 12.672 14.7125 12.0878 15.0024 11.5598C15.2869 11.0416 15.7177 10.9429 16.2144 11.2652C16.4628 11.4266 16.6722 11.6321 16.8699 11.8486C17.3548 12.3792 17.8225 12.9259 18.3258 13.4386C18.9572 14.0811 19.7052 14.4606 20.6456 14.3832L24.2861 14.3839C24.8727 14.3456 25.1768 13.6264 24.84 12.9717C24.6035 12.5132 24.2931 12.1049 23.9636 11.7098Z" fill="#D7D7D7"/>
</svg>
